<svg xmlns = "http://www.w3.org/2000/svg" width = "1000" height = "1000">
<g>
<polygon points = "0.000, 1000.000 82.833, 1000.000 17.314, 803.052 15.302, 799.335 0.000, 789.602 "
fill = "lightblue" stroke = "black"/>
</g>
<g>
<polygon points = "645.469, 653.374 755.509, 669.847 766.226, 581.530 644.076, 573.436 641.015, 645.538 641.133, 645.942 "
fill = "lightblue" stroke = "black"/>
</g>
<g>
<polygon points = "618.274, 783.931 620.509, 712.325 478.001, 735.786 483.125, 782.577 541.135, 809.400 "
fill = "lightblue" stroke = "black"/>
</g>
<g>
<polygon points = "143.823, 178.213 74.144, 223.612 15.169, 415.327 35.810, 414.439 144.784, 218.208 "
fill = "lightblue" stroke = "black"/>
</g>
<g>
<polygon points = "689.523, 44.763 715.101, 69.152 842.599, 67.687 844.175, 0.000 699.920, 0.000 "
fill = "lightblue" stroke = "black"/>
</g>
<g>
<polygon points = "402.193, 515.094 449.012, 538.796 471.044, 395.151 375.859, 375.822 "
fill = "lightblue" stroke = "black"/>
</g>
<g>
<polygon points = "877.538, 1000.000 829.383, 855.040 780.408, 856.738 788.024, 1000.000 "
fill = "lightblue" stroke = "black"/>
</g>
<g>
<polygon points = "0.000, 507.356 104.627, 553.105 117.810, 551.693 66.983, 424.101 35.810, 414.439 15.169, 415.327 0.000, 418.919 "
fill = "lightblue" stroke = "black"/>
</g>
<g>
<polygon points = "717.386, 1000.000 701.993, 920.313 537.479, 970.007 515.233, 997.277 514.673, 1000.000 "
fill = "lightblue" stroke = "black"/>
</g>
<g>
<polygon points = "348.850, 966.279 354.252, 1000.000 514.673, 1000.000 515.233, 997.277 493.947, 966.591 397.778, 911.480 358.052, 921.107 "
fill = "lightblue" stroke = "black"/>
</g>
<g>
<polygon points = "525.057, 365.284 488.089, 313.585 346.920, 328.141 374.534, 375.314 375.859, 375.822 471.044, 395.151 529.132, 377.875 "
fill = "lightblue" stroke = "black"/>
</g>
<g>
<polygon points = "608.947, 118.040 684.063, 47.970 466.877, 38.125 560.536, 119.265 "
fill = "lightblue" stroke = "black"/>
</g>
<g>
<polygon points = "803.130, 523.703 830.532, 547.812 875.129, 431.400 751.116, 404.715 735.125, 413.572 "
fill = "lightblue" stroke = "black"/>
</g>
<g>
<polygon points = "128.972, 389.384 139.533, 381.457 151.034, 231.511 144.784, 218.208 35.810, 414.439 66.983, 424.101 "
fill = "lightblue" stroke = "black"/>
</g>
<g>
<polygon points = "458.004, 271.627 317.730, 245.128 285.872, 246.018 346.920, 328.141 488.089, 313.585 472.326, 288.607 "
fill = "lightblue" stroke = "black"/>
</g>
<g>
<polygon points = "861.701, 256.702 913.212, 267.613 954.023, 135.426 914.949, 107.865 868.205, 135.826 "
fill = "lightblue" stroke = "black"/>
</g>
<g>
<polygon points = "103.022, 1000.000 354.252, 1000.000 348.850, 966.279 137.872, 948.279 "
fill = "lightblue" stroke = "black"/>
</g>
<g>
<polygon points = "809.746, 732.643 820.649, 707.731 814.412, 691.666 755.509, 669.847 645.469, 653.374 646.517, 678.406 743.794, 751.103 764.077, 753.294 "
fill = "lightblue" stroke = "black"/>
</g>
<g>
<polygon points = "529.132, 377.875 536.353, 382.527 653.060, 426.955 662.424, 422.458 683.802, 351.020 684.890, 318.928 554.773, 349.614 525.057, 365.284 "
fill = "lightblue" stroke = "black"/>
</g>
<g>
<polygon points = "1000.000, 649.762 905.188, 666.643 860.445, 709.970 1000.000, 769.096 "
fill = "lightblue" stroke = "black"/>
</g>
<g>
<polygon points = "99.704, 0.000 168.479, 82.223 304.618, 22.717 306.865, 0.000 "
fill = "lightblue" stroke = "black"/>
</g>
<g>
<polygon points = "770.787, 188.345 723.473, 240.528 684.890, 318.928 683.802, 351.020 813.937, 287.852 "
fill = "lightblue" stroke = "black"/>
</g>
<g>
<polygon points = "701.993, 920.313 707.945, 897.651 645.556, 829.372 542.778, 959.261 537.479, 970.007 "
fill = "lightblue" stroke = "black"/>
</g>
<g>
<polygon points = "636.702, 147.081 764.729, 167.442 715.101, 69.152 689.523, 44.763 684.063, 47.970 608.947, 118.040 "
fill = "lightblue" stroke = "black"/>
</g>
<g>
<polygon points = "355.966, 614.072 335.154, 513.454 325.175, 503.288 296.037, 514.799 181.581, 585.921 "
fill = "lightblue" stroke = "black"/>
</g>
<g>
<polygon points = "775.750, 544.043 803.130, 523.703 735.125, 413.572 662.424, 422.458 653.060, 426.955 650.305, 457.767 "
fill = "lightblue" stroke = "black"/>
</g>
<g>
<polygon points = "368.344, 708.382 365.532, 704.692 182.909, 731.314 174.594, 742.408 225.754, 806.616 352.596, 741.687 "
fill = "lightblue" stroke = "black"/>
</g>
<g>
<polygon points = "333.446, 890.867 358.052, 921.107 397.778, 911.480 432.127, 817.166 355.780, 754.728 "
fill = "lightblue" stroke = "black"/>
</g>
<g>
<polygon points = "456.298, 42.019 330.410, 86.641 377.224, 148.706 441.245, 190.112 "
fill = "lightblue" stroke = "black"/>
</g>
<g>
<polygon points = "883.070, 1000.000 919.614, 889.214 888.554, 798.385 876.078, 796.390 829.383, 855.040 877.538, 1000.000 "
fill = "lightblue" stroke = "black"/>
</g>
<g>
<polygon points = "910.129, 552.207 915.321, 547.943 930.782, 427.743 911.638, 420.768 875.129, 431.400 830.532, 547.812 844.415, 582.085 "
fill = "lightblue" stroke = "black"/>
</g>
<g>
<polygon points = "460.903, 689.083 451.574, 706.804 478.001, 735.786 620.509, 712.325 646.517, 678.406 645.469, 653.374 641.133, 645.942 "
fill = "lightblue" stroke = "black"/>
</g>
<g>
<polygon points = "915.321, 547.943 1000.000, 551.259 1000.000, 410.147 930.782, 427.743 "
fill = "lightblue" stroke = "black"/>
</g>
<g>
<polygon points = "348.850, 966.279 358.052, 921.107 333.446, 890.867 318.186, 887.197 141.567, 939.284 137.872, 948.279 "
fill = "lightblue" stroke = "black"/>
</g>
<g>
<polygon points = "1000.000, 912.259 1000.000, 791.767 888.554, 798.385 919.614, 889.214 "
fill = "lightblue" stroke = "black"/>
</g>
<g>
<polygon points = "460.903, 689.083 641.133, 645.942 641.015, 645.538 610.988, 632.421 464.325, 579.383 "
fill = "lightblue" stroke = "black"/>
</g>
<g>
<polygon points = "170.221, 91.248 283.680, 149.000 319.596, 81.944 304.618, 22.717 168.479, 82.223 "
fill = "lightblue" stroke = "black"/>
</g>
<g>
<polygon points = "545.834, 490.599 523.925, 487.571 463.782, 572.309 464.249, 579.242 464.325, 579.383 610.988, 632.421 "
fill = "lightblue" stroke = "black"/>
</g>
<g>
<polygon points = "1000.000, 912.259 919.614, 889.214 883.070, 1000.000 1000.000, 1000.000 "
fill = "lightblue" stroke = "black"/>
</g>
<g>
<polygon points = "868.205, 135.826 853.842, 131.607 776.647, 177.196 770.787, 188.345 813.937, 287.852 825.973, 294.647 861.701, 256.702 "
fill = "lightblue" stroke = "black"/>
</g>
<g>
<polygon points = "876.078, 796.390 809.746, 732.643 764.077, 753.294 759.702, 851.038 780.408, 856.738 829.383, 855.040 "
fill = "lightblue" stroke = "black"/>
</g>
<g>
<polygon points = "0.000, 185.407 0.000, 418.919 15.169, 415.327 74.144, 223.612 "
fill = "lightblue" stroke = "black"/>
</g>
<g>
<polygon points = "751.116, 404.715 875.129, 431.400 911.638, 420.768 910.641, 394.853 815.681, 315.800 "
fill = "lightblue" stroke = "black"/>
</g>
<g>
<polygon points = "825.973, 294.647 813.937, 287.852 683.802, 351.020 662.424, 422.458 735.125, 413.572 751.116, 404.715 815.681, 315.800 "
fill = "lightblue" stroke = "black"/>
</g>
<g>
<polygon points = "954.023, 135.426 1000.000, 149.879 1000.000, 0.000 939.352, 0.000 914.949, 107.865 "
fill = "lightblue" stroke = "black"/>
</g>
<g>
<polygon points = "182.909, 731.314 365.532, 704.692 354.003, 683.077 203.917, 633.372 "
fill = "lightblue" stroke = "black"/>
</g>
<g>
<polygon points = "402.193, 515.094 375.859, 375.822 374.534, 375.314 298.357, 396.176 325.175, 503.288 335.154, 513.454 "
fill = "lightblue" stroke = "black"/>
</g>
<g>
<polygon points = "540.230, 135.839 552.132, 250.984 627.434, 226.395 636.702, 147.081 608.947, 118.040 560.536, 119.265 "
fill = "lightblue" stroke = "black"/>
</g>
<g>
<polygon points = "330.410, 86.641 319.596, 81.944 283.680, 149.000 273.716, 232.404 280.648, 243.733 285.872, 246.018 317.730, 245.128 377.224, 148.706 "
fill = "lightblue" stroke = "black"/>
</g>
<g>
<polygon points = "365.481, 634.749 355.966, 614.072 181.581, 585.921 159.861, 593.563 203.917, 633.372 354.003, 683.077 "
fill = "lightblue" stroke = "black"/>
</g>
<g>
<polygon points = "610.988, 632.421 641.015, 645.538 644.076, 573.436 646.470, 481.201 545.834, 490.599 "
fill = "lightblue" stroke = "black"/>
</g>
<g>
<polygon points = "224.077, 812.824 318.186, 887.197 333.446, 890.867 355.780, 754.728 352.596, 741.687 225.754, 806.616 "
fill = "lightblue" stroke = "black"/>
</g>
<g>
<polygon points = "182.587, 483.821 189.476, 477.012 269.427, 382.379 255.420, 342.136 139.533, 381.457 128.972, 389.384 "
fill = "lightblue" stroke = "black"/>
</g>
<g>
<polygon points = "788.024, 1000.000 780.408, 856.738 759.702, 851.038 707.945, 897.651 701.993, 920.313 717.386, 1000.000 "
fill = "lightblue" stroke = "black"/>
</g>
<g>
<polygon points = "650.305, 457.767 653.060, 426.955 536.353, 382.527 523.925, 487.571 545.834, 490.599 646.470, 481.201 "
fill = "lightblue" stroke = "black"/>
</g>
<g>
<polygon points = "913.212, 267.613 942.568, 288.469 1000.000, 290.454 1000.000, 149.879 954.023, 135.426 "
fill = "lightblue" stroke = "black"/>
</g>
<g>
<polygon points = "466.877, 38.125 461.583, 35.217 456.298, 42.019 441.245, 190.112 448.210, 202.269 540.230, 135.839 560.536, 119.265 "
fill = "lightblue" stroke = "black"/>
</g>
<g>
<polygon points = "764.729, 167.442 636.702, 147.081 627.434, 226.395 634.208, 233.162 723.473, 240.528 770.787, 188.345 776.647, 177.196 "
fill = "lightblue" stroke = "black"/>
</g>
<g>
<polygon points = "107.027, 756.384 158.920, 891.113 224.077, 812.824 225.754, 806.616 174.594, 742.408 128.033, 733.020 "
fill = "lightblue" stroke = "black"/>
</g>
<g>
<polygon points = "759.702, 851.038 764.077, 753.294 743.794, 751.103 646.193, 823.668 645.556, 829.372 707.945, 897.651 "
fill = "lightblue" stroke = "black"/>
</g>
<g>
<polygon points = "107.027, 756.384 128.033, 733.020 103.786, 682.266 0.000, 705.055 0.000, 789.602 15.302, 799.335 "
fill = "lightblue" stroke = "black"/>
</g>
<g>
<polygon points = "0.000, 698.574 104.627, 553.105 0.000, 507.356 "
fill = "lightblue" stroke = "black"/>
</g>
<g>
<polygon points = "0.000, 122.252 0.000, 185.407 74.144, 223.612 143.823, 178.213 146.419, 166.956 72.014, 122.815 "
fill = "lightblue" stroke = "black"/>
</g>
<g>
<polygon points = "1000.000, 791.767 1000.000, 769.096 860.445, 709.970 820.649, 707.731 809.746, 732.643 876.078, 796.390 888.554, 798.385 "
fill = "lightblue" stroke = "black"/>
</g>
<g>
<polygon points = "203.917, 633.372 159.861, 593.563 145.097, 587.342 103.786, 682.266 128.033, 733.020 174.594, 742.408 182.909, 731.314 "
fill = "lightblue" stroke = "black"/>
</g>
<g>
<polygon points = "913.212, 267.613 861.701, 256.702 825.973, 294.647 815.681, 315.800 910.641, 394.853 942.568, 288.469 "
fill = "lightblue" stroke = "black"/>
</g>
<g>
<polygon points = "258.426, 315.814 280.648, 243.733 273.716, 232.404 154.602, 166.189 146.419, 166.956 143.823, 178.213 144.784, 218.208 151.034, 231.511 "
fill = "lightblue" stroke = "black"/>
</g>
<g>
<polygon points = "354.003, 683.077 365.532, 704.692 368.344, 708.382 451.574, 706.804 460.903, 689.083 464.325, 579.383 464.249, 579.242 365.481, 634.749 "
fill = "lightblue" stroke = "black"/>
</g>
<g>
<polygon points = "541.135, 809.400 483.125, 782.577 480.492, 787.796 493.947, 966.591 515.233, 997.277 537.479, 970.007 542.778, 959.261 "
fill = "lightblue" stroke = "black"/>
</g>
<g>
<polygon points = "448.210, 202.269 458.004, 271.627 472.326, 288.607 552.132, 250.984 540.230, 135.839 "
fill = "lightblue" stroke = "black"/>
</g>
<g>
<polygon points = "466.877, 38.125 684.063, 47.970 689.523, 44.763 699.920, 0.000 463.171, 0.000 461.583, 35.217 "
fill = "lightblue" stroke = "black"/>
</g>
<g>
<polygon points = "542.778, 959.261 645.556, 829.372 646.193, 823.668 618.274, 783.931 541.135, 809.400 "
fill = "lightblue" stroke = "black"/>
</g>
<g>
<polygon points = "910.129, 552.207 905.188, 666.643 1000.000, 649.762 1000.000, 551.259 915.321, 547.943 "
fill = "lightblue" stroke = "black"/>
</g>
<g>
<polygon points = "124.094, 553.921 182.587, 483.821 128.972, 389.384 66.983, 424.101 117.810, 551.693 "
fill = "lightblue" stroke = "black"/>
</g>
<g>
<polygon points = "269.427, 382.379 189.476, 477.012 296.037, 514.799 325.175, 503.288 298.357, 396.176 "
fill = "lightblue" stroke = "black"/>
</g>
<g>
<polygon points = "304.618, 22.717 319.596, 81.944 330.410, 86.641 456.298, 42.019 461.583, 35.217 463.171, 0.000 306.865, 0.000 "
fill = "lightblue" stroke = "black"/>
</g>
<g>
<polygon points = "145.108, 918.252 158.920, 891.113 107.027, 756.384 15.302, 799.335 17.314, 803.052 "
fill = "lightblue" stroke = "black"/>
</g>
<g>
<polygon points = "269.427, 382.379 298.357, 396.176 374.534, 375.314 346.920, 328.141 285.872, 246.018 280.648, 243.733 258.426, 315.814 255.420, 342.136 "
fill = "lightblue" stroke = "black"/>
</g>
<g>
<polygon points = "258.426, 315.814 151.034, 231.511 139.533, 381.457 255.420, 342.136 "
fill = "lightblue" stroke = "black"/>
</g>
<g>
<polygon points = "723.473, 240.528 634.208, 233.162 554.773, 349.614 684.890, 318.928 "
fill = "lightblue" stroke = "black"/>
</g>
<g>
<polygon points = "159.861, 593.563 181.581, 585.921 296.037, 514.799 189.476, 477.012 182.587, 483.821 124.094, 553.921 145.097, 587.342 "
fill = "lightblue" stroke = "black"/>
</g>
<g>
<polygon points = "355.780, 754.728 432.127, 817.166 480.492, 787.796 483.125, 782.577 478.001, 735.786 451.574, 706.804 368.344, 708.382 352.596, 741.687 "
fill = "lightblue" stroke = "black"/>
</g>
<g>
<polygon points = "0.000, 0.000 0.000, 122.252 72.014, 122.815 91.157, 0.000 "
fill = "lightblue" stroke = "black"/>
</g>
<g>
<polygon points = "493.947, 966.591 480.492, 787.796 432.127, 817.166 397.778, 911.480 "
fill = "lightblue" stroke = "black"/>
</g>
<g>
<polygon points = "820.649, 707.731 860.445, 709.970 905.188, 666.643 910.129, 552.207 844.415, 582.085 814.412, 691.666 "
fill = "lightblue" stroke = "black"/>
</g>
<g>
<polygon points = "170.221, 91.248 168.479, 82.223 99.704, 0.000 91.157, 0.000 72.014, 122.815 146.419, 166.956 154.602, 166.189 "
fill = "lightblue" stroke = "black"/>
</g>
<g>
<polygon points = "17.314, 803.052 82.833, 1000.000 103.022, 1000.000 137.872, 948.279 141.567, 939.284 145.108, 918.252 "
fill = "lightblue" stroke = "black"/>
</g>
<g>
<polygon points = "104.627, 553.105 0.000, 698.574 0.000, 705.055 103.786, 682.266 145.097, 587.342 124.094, 553.921 117.810, 551.693 "
fill = "lightblue" stroke = "black"/>
</g>
<g>
<polygon points = "224.077, 812.824 158.920, 891.113 145.108, 918.252 141.567, 939.284 318.186, 887.197 "
fill = "lightblue" stroke = "black"/>
</g>
<g>
<polygon points = "844.415, 582.085 830.532, 547.812 803.130, 523.703 775.750, 544.043 766.226, 581.530 755.509, 669.847 814.412, 691.666 "
fill = "lightblue" stroke = "black"/>
</g>
<g>
<polygon points = "402.193, 515.094 335.154, 513.454 355.966, 614.072 365.481, 634.749 464.249, 579.242 463.782, 572.309 449.012, 538.796 "
fill = "lightblue" stroke = "black"/>
</g>
<g>
<polygon points = "844.175, 0.000 842.599, 67.687 853.842, 131.607 868.205, 135.826 914.949, 107.865 939.352, 0.000 "
fill = "lightblue" stroke = "black"/>
</g>
<g>
<polygon points = "618.274, 783.931 646.193, 823.668 743.794, 751.103 646.517, 678.406 620.509, 712.325 "
fill = "lightblue" stroke = "black"/>
</g>
<g>
<polygon points = "715.101, 69.152 764.729, 167.442 776.647, 177.196 853.842, 131.607 842.599, 67.687 "
fill = "lightblue" stroke = "black"/>
</g>
<g>
<polygon points = "273.716, 232.404 283.680, 149.000 170.221, 91.248 154.602, 166.189 "
fill = "lightblue" stroke = "black"/>
</g>
<g>
<polygon points = "536.353, 382.527 529.132, 377.875 471.044, 395.151 449.012, 538.796 463.782, 572.309 523.925, 487.571 "
fill = "lightblue" stroke = "black"/>
</g>
<g>
<polygon points = "627.434, 226.395 552.132, 250.984 472.326, 288.607 488.089, 313.585 525.057, 365.284 554.773, 349.614 634.208, 233.162 "
fill = "lightblue" stroke = "black"/>
</g>
<g>
<polygon points = "650.305, 457.767 646.470, 481.201 644.076, 573.436 766.226, 581.530 775.750, 544.043 "
fill = "lightblue" stroke = "black"/>
</g>
<g>
<polygon points = "910.641, 394.853 911.638, 420.768 930.782, 427.743 1000.000, 410.147 1000.000, 290.454 942.568, 288.469 "
fill = "lightblue" stroke = "black"/>
</g>
<g>
<polygon points = "377.224, 148.706 317.730, 245.128 458.004, 271.627 448.210, 202.269 441.245, 190.112 "
fill = "lightblue" stroke = "black"/>
</g>
<g>
<circle cx = "0.008" cy = "868.462" r = "3" />
<circle cx = "755.605" cy = "541.350" r = "3" />
<circle cx = "532.767" cy = "781.041" r = "3" />
<circle cx = "47.045" cy = "321.135" r = "3" />
<circle cx = "679.296" cy = "65.307" r = "3" />
<circle cx = "383.502" cy = "480.584" r = "3" />
<circle cx = "830.965" cy = "965.428" r = "3" />
<circle cx = "53.462" cy = "470.300" r = "3" />
<circle cx = "671.149" cy = "992.302" r = "3" />
<circle cx = "383.416" cy = "933.158" r = "3" />
<circle cx = "417.486" cy = "313.227" r = "3" />
<circle cx = "588.977" cy = "69.564" r = "3" />
<circle cx = "846.167" cy = "473.071" r = "3" />
<circle cx = "91.965" cy = "346.081" r = "3" />
<circle cx = "415.999" cy = "298.809" r = "3" />
<circle cx = "910.321" cy = "237.802" r = "3" />
<circle cx = "262.453" cy = "952.535" r = "3" />
<circle cx = "736.082" cy = "671.766" r = "3" />
<circle cx = "632.639" cy = "243.590" r = "3" />
<circle cx = "991.037" cy = "634.661" r = "3" />
<circle cx = "247.039" cy = "17.450" r = "3" />
<circle cx = "722.660" cy = "246.644" r = "3" />
<circle cx = "651.519" cy = "927.314" r = "3" />
<circle cx = "631.635" cy = "115.293" r = "3" />
<circle cx = "272.710" cy = "563.589" r = "3" />
<circle cx = "766.495" cy = "522.268" r = "3" />
<circle cx = "237.774" cy = "725.093" r = "3" />
<circle cx = "359.265" cy = "833.493" r = "3" />
<circle cx = "486.517" cy = "102.344" r = "3" />
<circle cx = "909.208" cy = "939.436" r = "3" />
<circle cx = "904.653" cy = "495.477" r = "3" />
<circle cx = "516.292" cy = "680.967" r = "3" />
<circle cx = "986.642" cy = "506.023" r = "3" />
<circle cx = "266.145" cy = "909.267" r = "3" />
<circle cx = "947.764" cy = "926.251" r = "3" />
<circle cx = "500.707" cy = "615.858" r = "3" />
<circle cx = "277.082" cy = "86.183" r = "3" />
<circle cx = "529.747" cy = "535.554" r = "3" />
<circle cx = "940.980" cy = "949.916" r = "3" />
<circle cx = "761.514" cy = "229.795" r = "3" />
<circle cx = "827.817" cy = "874.635" r = "3" />
<circle cx = "15.868" cy = "311.545" r = "3" />
<circle cx = "868.247" cy = "370.457" r = "3" />
<circle cx = "736.225" cy = "274.588" r = "3" />
<circle cx = "999.458" cy = "111.428" r = "3" />
<circle cx = "233.195" cy = "693.678" r = "3" />
<circle cx = "351.015" cy = "486.726" r = "3" />
<circle cx = "591.114" cy = "154.018" r = "3" />
<circle cx = "412.081" cy = "158.489" r = "3" />
<circle cx = "269.317" cy = "584.605" r = "3" />
<circle cx = "537.304" cy = "532.083" r = "3" />
<circle cx = "287.212" cy = "821.672" r = "3" />
<circle cx = "153.720" cy = "428.345" r = "3" />
<circle cx = "802.406" cy = "966.946" r = "3" />
<circle cx = "534.450" cy = "501.520" r = "3" />
<circle cx = "955.361" cy = "251.707" r = "3" />
<circle cx = "554.584" cy = "109.263" r = "3" />
<circle cx = "624.849" cy = "157.960" r = "3" />
<circle cx = "159.768" cy = "787.248" r = "3" />
<circle cx = "714.710" cy = "869.573" r = "3" />
<circle cx = "90.990" cy = "725.412" r = "3" />
<circle cx = "3.000" cy = "585.707" r = "3" />
<circle cx = "26.876" cy = "290.180" r = "3" />
<circle cx = "937.897" cy = "760.089" r = "3" />
<circle cx = "180.896" cy = "682.460" r = "3" />
<circle cx = "886.991" cy = "347.941" r = "3" />
<circle cx = "150.335" cy = "318.654" r = "3" />
<circle cx = "385.815" cy = "612.275" r = "3" />
<circle cx = "499.741" cy = "852.467" r = "3" />
<circle cx = "587.187" cy = "154.424" r = "3" />
<circle cx = "590.109" cy = "44.591" r = "3" />
<circle cx = "556.146" cy = "851.848" r = "3" />
<circle cx = "983.305" cy = "591.233" r = "3" />
<circle cx = "141.820" cy = "435.101" r = "3" />
<circle cx = "252.126" cy = "511.485" r = "3" />
<circle cx = "464.031" cy = "38.905" r = "3" />
<circle cx = "126.031" cy = "800.243" r = "3" />
<circle cx = "319.250" cy = "370.731" r = "3" />
<circle cx = "126.712" cy = "348.746" r = "3" />
<circle cx = "621.634" cy = "196.927" r = "3" />
<circle cx = "247.842" cy = "523.568" r = "3" />
<circle cx = "389.314" cy = "796.750" r = "3" />
<circle cx = "28.375" cy = "98.327" r = "3" />
<circle cx = "426.497" cy = "857.979" r = "3" />
<circle cx = "947.487" cy = "589.687" r = "3" />
<circle cx = "131.189" cy = "114.352" r = "3" />
<circle cx = "92.174" cy = "837.801" r = "3" />
<circle cx = "71.064" cy = "634.661" r = "3" />
<circle cx = "253.057" cy = "864.891" r = "3" />
<circle cx = "783.153" cy = "544.693" r = "3" />
<circle cx = "349.524" cy = "547.700" r = "3" />
<circle cx = "808.945" cy = "68.326" r = "3" />
<circle cx = "651.646" cy = "784.752" r = "3" />
<circle cx = "679.592" cy = "91.078" r = "3" />
<circle cx = "250.126" cy = "139.140" r = "3" />
<circle cx = "471.262" cy = "494.044" r = "3" />
<circle cx = "600.394" cy = "182.439" r = "3" />
<circle cx = "755.844" cy = "537.755" r = "3" />
<circle cx = "951.367" cy = "367.261" r = "3" />
<circle cx = "439.330" cy = "175.303" r = "3" />
</g>
</svg>
