<svg xmlns = "http://www.w3.org/2000/svg" width = "1000" height = "1000">
<g>
<polygon points = "0.000, 1000.000 102.559, 1000.000 128.409, 919.308 141.457, 834.202 79.874, 732.070 33.574, 670.299 0.000, 665.792 "
fill = "lightblue" stroke = "black"/>
</g>
<g>
<polygon points = "641.330, 590.912 859.240, 623.533 861.065, 618.929 849.848, 582.484 644.553, 465.327 "
fill = "lightblue" stroke = "black"/>
</g>
<g>
<polygon points = "669.392, 791.463 627.763, 714.009 427.776, 746.933 462.343, 861.274 517.137, 915.071 "
fill = "lightblue" stroke = "black"/>
</g>
<g>
<polygon points = "6.459, 397.602 34.640, 396.389 148.853, 190.725 88.327, 131.465 "
fill = "lightblue" stroke = "black"/>
</g>
<g>
<polygon points = "852.107, 0.000 630.959, 0.000 634.261, 70.082 717.193, 149.157 839.421, 88.062 "
fill = "lightblue" stroke = "black"/>
</g>
<g>
<polygon points = "491.465, 415.378 348.874, 386.423 388.284, 594.852 441.256, 548.956 "
fill = "lightblue" stroke = "black"/>
</g>
<g>
<polygon points = "754.611, 1000.000 885.889, 1000.000 858.982, 919.005 746.224, 922.915 743.671, 934.937 "
fill = "lightblue" stroke = "black"/>
</g>
<g>
<polygon points = "0.000, 399.131 0.000, 665.792 33.574, 670.299 124.478, 597.156 147.267, 554.121 193.438, 445.611 34.640, 396.389 6.459, 397.602 "
fill = "lightblue" stroke = "black"/>
</g>
<g>
<polygon points = "528.278, 1000.000 754.611, 1000.000 743.671, 934.937 "
fill = "lightblue" stroke = "black"/>
</g>
<g>
<polygon points = "332.090, 1000.000 518.988, 1000.000 517.137, 915.071 462.343, 861.274 330.481, 893.226 321.807, 935.808 "
fill = "lightblue" stroke = "black"/>
</g>
<g>
<polygon points = "254.033, 322.795 256.899, 351.186 348.874, 386.423 491.465, 415.378 558.448, 381.556 530.212, 294.319 "
fill = "lightblue" stroke = "black"/>
</g>
<g>
<polygon points = "630.959, 0.000 510.248, 0.000 546.367, 112.896 589.535, 111.804 634.261, 70.082 "
fill = "lightblue" stroke = "black"/>
</g>
<g>
<polygon points = "745.493, 399.145 845.795, 561.579 896.147, 430.143 747.338, 398.123 "
fill = "lightblue" stroke = "black"/>
</g>
<g>
<polygon points = "148.853, 190.725 34.640, 396.389 193.438, 445.611 215.658, 427.146 256.899, 351.186 254.033, 322.795 244.728, 259.014 "
fill = "lightblue" stroke = "black"/>
</g>
<g>
<polygon points = "244.728, 259.014 254.033, 322.795 530.212, 294.319 517.069, 242.756 503.343, 226.156 285.719, 232.233 "
fill = "lightblue" stroke = "black"/>
</g>
<g>
<polygon points = "1000.000, 339.245 1000.000, 206.433 843.335, 95.931 833.092, 286.307 "
fill = "lightblue" stroke = "black"/>
</g>
<g>
<polygon points = "102.559, 1000.000 332.090, 1000.000 321.807, 935.808 128.409, 919.308 "
fill = "lightblue" stroke = "black"/>
</g>
<g>
<polygon points = "859.240, 623.533 641.330, 590.912 625.131, 615.451 623.861, 620.799 627.763, 714.009 669.392, 791.463 711.066, 805.253 874.904, 731.167 "
fill = "lightblue" stroke = "black"/>
</g>
<g>
<polygon points = "517.069, 242.756 530.212, 294.319 558.448, 381.556 639.260, 410.035 676.247, 286.437 679.891, 179.068 654.012, 179.270 "
fill = "lightblue" stroke = "black"/>
</g>
<g>
<polygon points = "1000.000, 784.997 1000.000, 569.961 936.466, 572.132 861.065, 618.929 859.240, 623.533 874.904, 731.167 941.224, 776.275 "
fill = "lightblue" stroke = "black"/>
</g>
<g>
<polygon points = "380.606, 0.000 0.000, 0.000 0.000, 61.169 86.002, 128.771 "
fill = "lightblue" stroke = "black"/>
</g>
<g>
<polygon points = "707.992, 159.594 679.891, 179.068 676.247, 286.437 747.912, 251.651 "
fill = "lightblue" stroke = "black"/>
</g>
<g>
<polygon points = "518.988, 1000.000 528.278, 1000.000 743.671, 934.937 746.224, 922.915 711.066, 805.253 669.392, 791.463 517.137, 915.071 "
fill = "lightblue" stroke = "black"/>
</g>
<g>
<polygon points = "717.193, 149.157 634.261, 70.082 589.535, 111.804 654.012, 179.270 679.891, 179.068 707.992, 159.594 "
fill = "lightblue" stroke = "black"/>
</g>
<g>
<polygon points = "193.438, 445.611 147.267, 554.121 376.637, 591.147 215.658, 427.146 "
fill = "lightblue" stroke = "black"/>
</g>
<g>
<polygon points = "644.553, 465.327 849.848, 582.484 845.795, 561.579 745.493, 399.145 641.552, 411.848 "
fill = "lightblue" stroke = "black"/>
</g>
<g>
<polygon points = "79.874, 732.070 141.457, 834.202 266.747, 814.902 375.455, 693.067 374.822, 689.074 "
fill = "lightblue" stroke = "black"/>
</g>
<g>
<polygon points = "462.343, 861.274 427.776, 746.933 375.455, 693.067 266.747, 814.902 330.481, 893.226 "
fill = "lightblue" stroke = "black"/>
</g>
<g>
<polygon points = "510.248, 0.000 389.073, 0.000 385.533, 45.877 502.721, 201.242 546.367, 112.896 "
fill = "lightblue" stroke = "black"/>
</g>
<g>
<polygon points = "885.889, 1000.000 906.845, 1000.000 928.746, 933.604 904.293, 862.095 858.982, 919.005 "
fill = "lightblue" stroke = "black"/>
</g>
<g>
<polygon points = "896.147, 430.143 845.795, 561.579 849.848, 582.484 861.065, 618.929 936.466, 572.132 957.009, 412.420 "
fill = "lightblue" stroke = "black"/>
</g>
<g>
<polygon points = "374.822, 689.074 375.455, 693.067 427.776, 746.933 627.763, 714.009 623.861, 620.799 374.437, 680.502 "
fill = "lightblue" stroke = "black"/>
</g>
<g>
<polygon points = "1000.000, 569.961 1000.000, 374.875 957.009, 412.420 936.466, 572.132 "
fill = "lightblue" stroke = "black"/>
</g>
<g>
<polygon points = "321.807, 935.808 330.481, 893.226 266.747, 814.902 141.457, 834.202 128.409, 919.308 "
fill = "lightblue" stroke = "black"/>
</g>
<g>
<polygon points = "1000.000, 954.031 1000.000, 784.997 941.224, 776.275 904.293, 862.095 928.746, 933.604 "
fill = "lightblue" stroke = "black"/>
</g>
<g>
<polygon points = "441.256, 548.956 388.284, 594.852 385.266, 598.351 374.255, 679.876 374.437, 680.502 623.861, 620.799 625.131, 615.451 "
fill = "lightblue" stroke = "black"/>
</g>
<g>
<polygon points = "389.073, 0.000 380.606, 0.000 86.002, 128.771 88.327, 131.465 148.853, 190.725 244.728, 259.014 285.719, 232.233 385.533, 45.877 "
fill = "lightblue" stroke = "black"/>
</g>
<g>
<polygon points = "641.330, 590.912 644.553, 465.327 641.552, 411.848 639.260, 410.035 558.448, 381.556 491.465, 415.378 441.256, 548.956 625.131, 615.451 "
fill = "lightblue" stroke = "black"/>
</g>
<g>
<polygon points = "906.845, 1000.000 1000.000, 1000.000 1000.000, 954.031 928.746, 933.604 "
fill = "lightblue" stroke = "black"/>
</g>
<g>
<polygon points = "839.421, 88.062 717.193, 149.157 707.992, 159.594 747.912, 251.651 822.939, 294.011 833.092, 286.307 843.335, 95.931 "
fill = "lightblue" stroke = "black"/>
</g>
<g>
<polygon points = "941.224, 776.275 874.904, 731.167 711.066, 805.253 746.224, 922.915 858.982, 919.005 904.293, 862.095 "
fill = "lightblue" stroke = "black"/>
</g>
<g>
<polygon points = "0.000, 61.169 0.000, 399.131 6.459, 397.602 88.327, 131.465 86.002, 128.771 "
fill = "lightblue" stroke = "black"/>
</g>
<g>
<polygon points = "1000.000, 374.875 1000.000, 339.245 833.092, 286.307 822.939, 294.011 747.338, 398.123 896.147, 430.143 957.009, 412.420 "
fill = "lightblue" stroke = "black"/>
</g>
<g>
<polygon points = "676.247, 286.437 639.260, 410.035 641.552, 411.848 745.493, 399.145 747.338, 398.123 822.939, 294.011 747.912, 251.651 "
fill = "lightblue" stroke = "black"/>
</g>
<g>
<polygon points = "1000.000, 206.433 1000.000, 0.000 852.107, 0.000 839.421, 88.062 843.335, 95.931 "
fill = "lightblue" stroke = "black"/>
</g>
<g>
<polygon points = "124.478, 597.156 33.574, 670.299 79.874, 732.070 374.822, 689.074 374.437, 680.502 374.255, 679.876 "
fill = "lightblue" stroke = "black"/>
</g>
<g>
<polygon points = "388.284, 594.852 348.874, 386.423 256.899, 351.186 215.658, 427.146 376.637, 591.147 385.266, 598.351 "
fill = "lightblue" stroke = "black"/>
</g>
<g>
<polygon points = "589.535, 111.804 546.367, 112.896 502.721, 201.242 503.343, 226.156 517.069, 242.756 654.012, 179.270 "
fill = "lightblue" stroke = "black"/>
</g>
<g>
<polygon points = "285.719, 232.233 503.343, 226.156 502.721, 201.242 385.533, 45.877 "
fill = "lightblue" stroke = "black"/>
</g>
<g>
<polygon points = "376.637, 591.147 147.267, 554.121 124.478, 597.156 374.255, 679.876 385.266, 598.351 "
fill = "lightblue" stroke = "black"/>
</g>
<g>
<circle cx = "0.008" cy = "868.462" r = "3" />
<circle cx = "755.605" cy = "541.350" r = "3" />
<circle cx = "532.767" cy = "781.041" r = "3" />
<circle cx = "47.045" cy = "321.135" r = "3" />
<circle cx = "679.296" cy = "65.307" r = "3" />
<circle cx = "383.502" cy = "480.584" r = "3" />
<circle cx = "830.965" cy = "965.428" r = "3" />
<circle cx = "53.462" cy = "470.300" r = "3" />
<circle cx = "671.149" cy = "992.302" r = "3" />
<circle cx = "383.416" cy = "933.158" r = "3" />
<circle cx = "417.486" cy = "313.227" r = "3" />
<circle cx = "588.977" cy = "69.564" r = "3" />
<circle cx = "846.167" cy = "473.071" r = "3" />
<circle cx = "91.965" cy = "346.081" r = "3" />
<circle cx = "415.999" cy = "298.809" r = "3" />
<circle cx = "910.321" cy = "237.802" r = "3" />
<circle cx = "262.453" cy = "952.535" r = "3" />
<circle cx = "736.082" cy = "671.766" r = "3" />
<circle cx = "632.639" cy = "243.590" r = "3" />
<circle cx = "991.037" cy = "634.661" r = "3" />
<circle cx = "247.039" cy = "17.450" r = "3" />
<circle cx = "722.660" cy = "246.644" r = "3" />
<circle cx = "651.519" cy = "927.314" r = "3" />
<circle cx = "631.635" cy = "115.293" r = "3" />
<circle cx = "272.710" cy = "563.589" r = "3" />
<circle cx = "766.495" cy = "522.268" r = "3" />
<circle cx = "237.774" cy = "725.093" r = "3" />
<circle cx = "359.265" cy = "833.493" r = "3" />
<circle cx = "486.517" cy = "102.344" r = "3" />
<circle cx = "909.208" cy = "939.436" r = "3" />
<circle cx = "904.653" cy = "495.477" r = "3" />
<circle cx = "516.292" cy = "680.967" r = "3" />
<circle cx = "986.642" cy = "506.023" r = "3" />
<circle cx = "266.145" cy = "909.267" r = "3" />
<circle cx = "947.764" cy = "926.251" r = "3" />
<circle cx = "500.707" cy = "615.858" r = "3" />
<circle cx = "277.082" cy = "86.183" r = "3" />
<circle cx = "529.747" cy = "535.554" r = "3" />
<circle cx = "940.980" cy = "949.916" r = "3" />
<circle cx = "761.514" cy = "229.795" r = "3" />
<circle cx = "827.817" cy = "874.635" r = "3" />
<circle cx = "15.868" cy = "311.545" r = "3" />
<circle cx = "868.247" cy = "370.457" r = "3" />
<circle cx = "736.225" cy = "274.588" r = "3" />
<circle cx = "999.458" cy = "111.428" r = "3" />
<circle cx = "233.195" cy = "693.678" r = "3" />
<circle cx = "351.015" cy = "486.726" r = "3" />
<circle cx = "591.114" cy = "154.018" r = "3" />
<circle cx = "412.081" cy = "158.489" r = "3" />
<circle cx = "269.317" cy = "584.605" r = "3" />
</g>
</svg>
