<svg xmlns = "http://www.w3.org/2000/svg" width = "1000" height = "1000">
<g>
<polygon points = "22.538, 782.334 0.000, 767.999 0.000, 1000.000 94.949, 1000.000 "
fill = "lightblue" stroke = "black"/>
</g>
<g>
<polygon points = "761.387, 608.885 769.688, 540.478 646.641, 532.324 644.136, 591.332 "
fill = "lightblue" stroke = "black"/>
</g>
<g>
<polygon points = "591.646, 800.864 594.184, 719.537 455.938, 742.296 461.309, 791.348 527.613, 822.006 "
fill = "lightblue" stroke = "black"/>
</g>
<g>
<polygon points = "34.186, 307.465 6.459, 397.602 34.640, 396.389 97.795, 282.665 97.402, 266.278 "
fill = "lightblue" stroke = "black"/>
</g>
<g>
<polygon points = "643.204, 78.609 743.873, 77.453 745.676, 0.000 647.466, 0.000 633.743, 59.081 634.261, 70.082 "
fill = "lightblue" stroke = "black"/>
</g>
<g>
<polygon points = "440.018, 404.931 400.523, 396.911 355.803, 423.068 373.712, 517.786 419.178, 540.804 "
fill = "lightblue" stroke = "black"/>
</g>
<g>
<polygon points = "885.889, 1000.000 858.982, 919.005 814.260, 920.556 818.483, 1000.000 "
fill = "lightblue" stroke = "black"/>
</g>
<g>
<polygon points = "0.000, 515.659 79.892, 550.592 134.315, 544.764 80.923, 410.735 34.640, 396.389 6.459, 397.602 0.000, 399.131 "
fill = "lightblue" stroke = "black"/>
</g>
<g>
<polygon points = "740.714, 1000.000 729.908, 944.062 722.346, 941.378 528.278, 1000.000 "
fill = "lightblue" stroke = "black"/>
</g>
<g>
<polygon points = "515.931, 1000.000 468.914, 932.219 379.951, 881.239 330.481, 893.226 321.807, 935.808 332.090, 1000.000 "
fill = "lightblue" stroke = "black"/>
</g>
<g>
<polygon points = "351.270, 312.769 400.523, 396.911 440.018, 404.931 516.534, 382.175 551.598, 360.393 530.212, 294.319 "
fill = "lightblue" stroke = "black"/>
</g>
<g>
<polygon points = "634.261, 70.082 633.743, 59.081 531.414, 54.442 593.431, 108.170 "
fill = "lightblue" stroke = "black"/>
</g>
<g>
<polygon points = "811.582, 506.174 853.045, 542.654 896.147, 430.143 747.338, 398.123 745.493, 399.145 "
fill = "lightblue" stroke = "black"/>
</g>
<g>
<polygon points = "80.923, 410.735 105.539, 396.950 111.988, 312.869 97.795, 282.665 34.640, 396.389 "
fill = "lightblue" stroke = "black"/>
</g>
<g>
<polygon points = "351.270, 312.769 530.212, 294.319 522.169, 262.763 516.540, 253.845 387.140, 229.401 321.256, 231.240 303.994, 249.173 "
fill = "lightblue" stroke = "black"/>
</g>
<g>
<polygon points = "894.644, 132.121 839.617, 165.036 833.482, 279.066 916.799, 296.715 954.566, 174.387 "
fill = "lightblue" stroke = "black"/>
</g>
<g>
<polygon points = "159.274, 921.941 106.678, 1000.000 332.090, 1000.000 321.807, 935.808 "
fill = "lightblue" stroke = "black"/>
</g>
<g>
<polygon points = "623.861, 620.799 626.244, 677.725 754.877, 773.855 775.561, 776.089 819.320, 756.302 857.059, 670.069 845.385, 640.000 761.387, 608.885 644.136, 591.332 624.081, 619.872 "
fill = "lightblue" stroke = "black"/>
</g>
<g>
<polygon points = "583.069, 230.651 522.169, 262.763 530.212, 294.319 551.598, 360.393 643.631, 395.429 676.247, 286.437 678.907, 208.049 "
fill = "lightblue" stroke = "black"/>
</g>
<g>
<polygon points = "1000.000, 610.663 964.249, 617.029 906.596, 672.857 1000.000, 712.429 "
fill = "lightblue" stroke = "black"/>
</g>
<g>
<polygon points = "133.992, 0.000 200.016, 78.935 357.314, 10.181 358.321, 0.000 "
fill = "lightblue" stroke = "black"/>
</g>
<g>
<polygon points = "691.209, 183.052 678.907, 208.049 676.247, 286.437 747.912, 251.651 710.844, 166.171 705.064, 167.771 "
fill = "lightblue" stroke = "black"/>
</g>
<g>
<polygon points = "521.331, 1000.000 528.278, 1000.000 722.346, 941.378 644.356, 856.026 630.393, 856.014 529.386, 983.666 "
fill = "lightblue" stroke = "black"/>
</g>
<g>
<polygon points = "610.572, 133.817 676.363, 144.279 643.204, 78.609 634.261, 70.082 593.431, 108.170 592.873, 115.297 "
fill = "lightblue" stroke = "black"/>
</g>
<g>
<polygon points = "303.976, 521.120 283.229, 529.316 223.504, 566.428 316.451, 581.432 "
fill = "lightblue" stroke = "black"/>
</g>
<g>
<polygon points = "811.582, 506.174 745.493, 399.145 659.615, 409.641 655.359, 457.239 770.684, 536.556 "
fill = "lightblue" stroke = "black"/>
</g>
<g>
<polygon points = "339.789, 705.418 332.081, 695.304 201.408, 714.353 183.979, 737.606 226.973, 791.565 322.073, 742.884 "
fill = "lightblue" stroke = "black"/>
</g>
<g>
<polygon points = "315.492, 874.805 330.481, 893.226 379.951, 881.239 397.206, 833.862 331.080, 779.784 "
fill = "lightblue" stroke = "black"/>
</g>
<g>
<polygon points = "525.952, 52.661 419.193, 90.503 448.702, 129.625 513.846, 171.758 "
fill = "lightblue" stroke = "black"/>
</g>
<g>
<polygon points = "885.889, 1000.000 906.845, 1000.000 928.746, 933.604 904.293, 862.095 858.982, 919.005 "
fill = "lightblue" stroke = "black"/>
</g>
<g>
<polygon points = "853.045, 542.654 864.378, 570.631 941.149, 535.726 953.383, 440.614 911.986, 425.531 896.147, 430.143 "
fill = "lightblue" stroke = "black"/>
</g>
<g>
<polygon points = "441.691, 664.404 420.908, 703.880 455.938, 742.296 594.184, 719.537 626.244, 677.725 623.861, 620.799 "
fill = "lightblue" stroke = "black"/>
</g>
<g>
<polygon points = "967.232, 547.934 1000.000, 549.217 1000.000, 428.763 953.383, 440.614 941.149, 535.726 "
fill = "lightblue" stroke = "black"/>
</g>
<g>
<polygon points = "315.492, 874.805 307.631, 872.914 161.739, 915.939 159.274, 921.941 321.807, 935.808 330.481, 893.226 "
fill = "lightblue" stroke = "black"/>
</g>
<g>
<polygon points = "928.746, 933.604 1000.000, 954.031 1000.000, 839.775 911.640, 845.022 904.293, 862.095 "
fill = "lightblue" stroke = "black"/>
</g>
<g>
<polygon points = "469.112, 559.029 444.794, 564.908 441.691, 664.404 623.861, 620.799 624.081, 619.872 560.249, 591.987 "
fill = "lightblue" stroke = "black"/>
</g>
<g>
<polygon points = "200.307, 80.443 331.305, 147.123 372.497, 70.217 357.314, 10.181 200.016, 78.935 "
fill = "lightblue" stroke = "black"/>
</g>
<g>
<polygon points = "526.126, 517.712 500.910, 514.228 469.112, 559.029 560.249, 591.987 "
fill = "lightblue" stroke = "black"/>
</g>
<g>
<polygon points = "1000.000, 954.031 928.746, 933.604 906.845, 1000.000 1000.000, 1000.000 "
fill = "lightblue" stroke = "black"/>
</g>
<g>
<polygon points = "754.901, 140.152 710.844, 166.171 747.912, 251.651 820.635, 292.710 833.482, 279.066 839.617, 165.036 "
fill = "lightblue" stroke = "black"/>
</g>
<g>
<polygon points = "911.640, 845.022 819.320, 756.302 775.561, 776.089 769.645, 908.274 814.260, 920.556 858.982, 919.005 904.293, 862.095 "
fill = "lightblue" stroke = "black"/>
</g>
<g>
<polygon points = "0.000, 289.850 0.000, 399.131 6.459, 397.602 34.186, 307.465 "
fill = "lightblue" stroke = "black"/>
</g>
<g>
<polygon points = "910.488, 386.562 814.038, 306.269 747.338, 398.123 896.147, 430.143 911.986, 425.531 "
fill = "lightblue" stroke = "black"/>
</g>
<g>
<polygon points = "820.635, 292.710 747.912, 251.651 676.247, 286.437 643.631, 395.429 659.615, 409.641 745.493, 399.145 747.338, 398.123 814.038, 306.269 "
fill = "lightblue" stroke = "black"/>
</g>
<g>
<polygon points = "954.566, 174.387 1000.000, 188.669 1000.000, 0.000 924.535, 0.000 894.644, 132.121 "
fill = "lightblue" stroke = "black"/>
</g>
<g>
<polygon points = "201.408, 714.353 332.081, 695.304 313.039, 659.603 219.776, 628.716 "
fill = "lightblue" stroke = "black"/>
</g>
<g>
<polygon points = "373.712, 517.786 355.803, 423.068 287.234, 441.846 305.832, 516.126 "
fill = "lightblue" stroke = "black"/>
</g>
<g>
<polygon points = "592.873, 115.297 585.729, 121.127 590.766, 169.857 606.980, 164.563 610.572, 133.817 "
fill = "lightblue" stroke = "black"/>
</g>
<g>
<polygon points = "321.256, 231.240 387.140, 229.401 448.702, 129.625 419.193, 90.503 372.497, 70.217 331.305, 147.123 "
fill = "lightblue" stroke = "black"/>
</g>
<g>
<polygon points = "326.446, 603.154 316.451, 581.432 223.504, 566.428 171.206, 584.829 219.776, 628.716 313.039, 659.603 "
fill = "lightblue" stroke = "black"/>
</g>
<g>
<polygon points = "624.081, 619.872 644.136, 591.332 646.641, 532.324 647.314, 506.395 526.126, 517.712 560.249, 591.987 "
fill = "lightblue" stroke = "black"/>
</g>
<g>
<polygon points = "223.054, 806.074 307.631, 872.914 315.492, 874.805 331.080, 779.784 322.073, 742.884 226.973, 791.565 "
fill = "lightblue" stroke = "black"/>
</g>
<g>
<polygon points = "244.041, 421.247 226.621, 371.198 187.816, 372.395 125.996, 393.371 182.905, 493.610 "
fill = "lightblue" stroke = "black"/>
</g>
<g>
<polygon points = "740.714, 1000.000 818.483, 1000.000 814.260, 920.556 769.645, 908.274 729.908, 944.062 "
fill = "lightblue" stroke = "black"/>
</g>
<g>
<polygon points = "500.910, 514.228 526.126, 517.712 647.314, 506.395 655.359, 457.239 659.615, 409.641 643.631, 395.429 551.598, 360.393 516.534, 382.175 "
fill = "lightblue" stroke = "black"/>
</g>
<g>
<polygon points = "916.799, 296.715 933.822, 308.809 1000.000, 311.096 1000.000, 188.669 954.566, 174.387 "
fill = "lightblue" stroke = "black"/>
</g>
<g>
<polygon points = "514.358, 172.651 585.729, 121.127 592.873, 115.297 593.431, 108.170 531.414, 54.442 526.616, 51.807 525.952, 52.661 513.846, 171.758 "
fill = "lightblue" stroke = "black"/>
</g>
<g>
<polygon points = "619.569, 177.141 691.209, 183.052 705.064, 167.771 676.363, 144.279 610.572, 133.817 606.980, 164.563 "
fill = "lightblue" stroke = "black"/>
</g>
<g>
<polygon points = "127.555, 753.909 171.504, 868.013 223.054, 806.074 226.973, 791.565 183.979, 737.606 148.623, 730.477 "
fill = "lightblue" stroke = "black"/>
</g>
<g>
<polygon points = "729.908, 944.062 769.645, 908.274 775.561, 776.089 754.877, 773.855 644.356, 856.026 722.346, 941.378 "
fill = "lightblue" stroke = "black"/>
</g>
<g>
<polygon points = "0.000, 697.828 0.000, 767.999 22.538, 782.334 67.873, 781.856 127.555, 753.909 148.623, 730.477 120.396, 671.392 "
fill = "lightblue" stroke = "black"/>
</g>
<g>
<polygon points = "0.000, 661.671 79.892, 550.592 0.000, 515.659 "
fill = "lightblue" stroke = "black"/>
</g>
<g>
<polygon points = "0.000, 194.038 0.000, 289.850 34.186, 307.465 97.402, 266.278 108.177, 219.556 66.032, 194.554 "
fill = "lightblue" stroke = "black"/>
</g>
<g>
<polygon points = "819.320, 756.302 911.640, 845.022 1000.000, 839.775 1000.000, 712.429 906.596, 672.857 857.059, 670.069 "
fill = "lightblue" stroke = "black"/>
</g>
<g>
<polygon points = "219.776, 628.716 171.206, 584.829 160.104, 580.151 120.396, 671.392 148.623, 730.477 183.979, 737.606 201.408, 714.353 "
fill = "lightblue" stroke = "black"/>
</g>
<g>
<polygon points = "916.799, 296.715 833.482, 279.066 820.635, 292.710 814.038, 306.269 910.488, 386.562 933.822, 308.809 "
fill = "lightblue" stroke = "black"/>
</g>
<g>
<polygon points = "187.816, 372.395 226.621, 371.198 260.213, 262.241 172.572, 213.522 108.177, 219.556 97.402, 266.278 97.795, 282.665 111.988, 312.869 "
fill = "lightblue" stroke = "black"/>
</g>
<g>
<polygon points = "326.446, 603.154 313.039, 659.603 332.081, 695.304 339.789, 705.418 420.908, 703.880 441.691, 664.404 444.794, 564.908 422.794, 549.008 "
fill = "lightblue" stroke = "black"/>
</g>
<g>
<polygon points = "527.613, 822.006 461.309, 791.348 458.701, 796.517 468.914, 932.219 515.931, 1000.000 521.331, 1000.000 529.386, 983.666 "
fill = "lightblue" stroke = "black"/>
</g>
<g>
<polygon points = "590.766, 169.857 585.729, 121.127 514.358, 172.651 518.757, 203.805 "
fill = "lightblue" stroke = "black"/>
</g>
<g>
<polygon points = "526.616, 51.807 531.414, 54.442 633.743, 59.081 647.466, 0.000 528.952, 0.000 "
fill = "lightblue" stroke = "black"/>
</g>
<g>
<polygon points = "630.393, 856.014 591.646, 800.864 527.613, 822.006 529.386, 983.666 "
fill = "lightblue" stroke = "black"/>
</g>
<g>
<polygon points = "1000.000, 610.663 1000.000, 549.217 967.232, 547.934 964.249, 617.029 "
fill = "lightblue" stroke = "black"/>
</g>
<g>
<polygon points = "134.315, 544.764 138.884, 546.384 182.832, 493.714 182.905, 493.610 125.996, 393.371 105.539, 396.950 80.923, 410.735 "
fill = "lightblue" stroke = "black"/>
</g>
<g>
<polygon points = "303.976, 521.120 305.832, 516.126 287.234, 441.846 244.041, 421.247 182.905, 493.610 182.832, 493.714 283.229, 529.316 "
fill = "lightblue" stroke = "black"/>
</g>
<g>
<polygon points = "357.314, 10.181 372.497, 70.217 419.193, 90.503 525.952, 52.661 526.616, 51.807 528.952, 0.000 358.321, 0.000 "
fill = "lightblue" stroke = "black"/>
</g>
<g>
<polygon points = "171.504, 868.013 127.555, 753.909 67.873, 781.856 168.971, 872.991 "
fill = "lightblue" stroke = "black"/>
</g>
<g>
<polygon points = "244.041, 421.247 287.234, 441.846 355.803, 423.068 400.523, 396.911 351.270, 312.769 303.994, 249.173 260.213, 262.241 226.621, 371.198 "
fill = "lightblue" stroke = "black"/>
</g>
<g>
<polygon points = "125.996, 393.371 187.816, 372.395 111.988, 312.869 105.539, 396.950 "
fill = "lightblue" stroke = "black"/>
</g>
<g>
<polygon points = "691.209, 183.052 619.569, 177.141 583.069, 230.651 678.907, 208.049 "
fill = "lightblue" stroke = "black"/>
</g>
<g>
<polygon points = "138.884, 546.384 160.104, 580.151 171.206, 584.829 223.504, 566.428 283.229, 529.316 182.832, 493.714 "
fill = "lightblue" stroke = "black"/>
</g>
<g>
<polygon points = "331.080, 779.784 397.206, 833.862 458.701, 796.517 461.309, 791.348 455.938, 742.296 420.908, 703.880 339.789, 705.418 322.073, 742.884 "
fill = "lightblue" stroke = "black"/>
</g>
<g>
<polygon points = "0.000, 0.000 0.000, 194.038 66.032, 194.554 96.357, 0.000 "
fill = "lightblue" stroke = "black"/>
</g>
<g>
<polygon points = "468.914, 932.219 458.701, 796.517 397.206, 833.862 379.951, 881.239 "
fill = "lightblue" stroke = "black"/>
</g>
<g>
<polygon points = "967.232, 547.934 941.149, 535.726 864.378, 570.631 845.385, 640.000 857.059, 670.069 906.596, 672.857 964.249, 617.029 "
fill = "lightblue" stroke = "black"/>
</g>
<g>
<polygon points = "200.307, 80.443 200.016, 78.935 133.992, 0.000 96.357, 0.000 66.032, 194.554 108.177, 219.556 172.572, 213.522 "
fill = "lightblue" stroke = "black"/>
</g>
<g>
<polygon points = "22.538, 782.334 94.949, 1000.000 106.678, 1000.000 159.274, 921.941 161.739, 915.939 168.971, 872.991 67.873, 781.856 "
fill = "lightblue" stroke = "black"/>
</g>
<g>
<polygon points = "79.892, 550.592 0.000, 661.671 0.000, 697.828 120.396, 671.392 160.104, 580.151 138.884, 546.384 134.315, 544.764 "
fill = "lightblue" stroke = "black"/>
</g>
<g>
<polygon points = "161.739, 915.939 307.631, 872.914 223.054, 806.074 171.504, 868.013 168.971, 872.991 "
fill = "lightblue" stroke = "black"/>
</g>
<g>
<polygon points = "864.378, 570.631 853.045, 542.654 811.582, 506.174 770.684, 536.556 769.688, 540.478 761.387, 608.885 845.385, 640.000 "
fill = "lightblue" stroke = "black"/>
</g>
<g>
<polygon points = "373.712, 517.786 305.832, 516.126 303.976, 521.120 316.451, 581.432 326.446, 603.154 422.794, 549.008 419.178, 540.804 "
fill = "lightblue" stroke = "black"/>
</g>
<g>
<polygon points = "745.676, 0.000 743.873, 77.453 754.901, 140.152 839.617, 165.036 894.644, 132.121 924.535, 0.000 "
fill = "lightblue" stroke = "black"/>
</g>
<g>
<polygon points = "630.393, 856.014 644.356, 856.026 754.877, 773.855 626.244, 677.725 594.184, 719.537 591.646, 800.864 "
fill = "lightblue" stroke = "black"/>
</g>
<g>
<polygon points = "710.844, 166.171 754.901, 140.152 743.873, 77.453 643.204, 78.609 676.363, 144.279 705.064, 167.771 "
fill = "lightblue" stroke = "black"/>
</g>
<g>
<polygon points = "331.305, 147.123 200.307, 80.443 172.572, 213.522 260.213, 262.241 303.994, 249.173 321.256, 231.240 "
fill = "lightblue" stroke = "black"/>
</g>
<g>
<polygon points = "440.018, 404.931 419.178, 540.804 422.794, 549.008 444.794, 564.908 469.112, 559.029 500.910, 514.228 516.534, 382.175 "
fill = "lightblue" stroke = "black"/>
</g>
<g>
<polygon points = "590.766, 169.857 518.757, 203.805 516.540, 253.845 522.169, 262.763 583.069, 230.651 619.569, 177.141 606.980, 164.563 "
fill = "lightblue" stroke = "black"/>
</g>
<g>
<polygon points = "655.359, 457.239 647.314, 506.395 646.641, 532.324 769.688, 540.478 770.684, 536.556 "
fill = "lightblue" stroke = "black"/>
</g>
<g>
<polygon points = "910.488, 386.562 911.986, 425.531 953.383, 440.614 1000.000, 428.763 1000.000, 311.096 933.822, 308.809 "
fill = "lightblue" stroke = "black"/>
</g>
<g>
<polygon points = "516.540, 253.845 518.757, 203.805 514.358, 172.651 513.846, 171.758 448.702, 129.625 387.140, 229.401 "
fill = "lightblue" stroke = "black"/>
</g>
<g>
<circle cx = "0.008" cy = "868.462" r = "3" />
<circle cx = "755.605" cy = "541.350" r = "3" />
<circle cx = "532.767" cy = "781.041" r = "3" />
<circle cx = "47.045" cy = "321.135" r = "3" />
<circle cx = "679.296" cy = "65.307" r = "3" />
<circle cx = "383.502" cy = "480.584" r = "3" />
<circle cx = "830.965" cy = "965.428" r = "3" />
<circle cx = "53.462" cy = "470.300" r = "3" />
<circle cx = "671.149" cy = "992.302" r = "3" />
<circle cx = "383.416" cy = "933.158" r = "3" />
<circle cx = "417.486" cy = "313.227" r = "3" />
<circle cx = "588.977" cy = "69.564" r = "3" />
<circle cx = "846.167" cy = "473.071" r = "3" />
<circle cx = "91.965" cy = "346.081" r = "3" />
<circle cx = "415.999" cy = "298.809" r = "3" />
<circle cx = "910.321" cy = "237.802" r = "3" />
<circle cx = "262.453" cy = "952.535" r = "3" />
<circle cx = "736.082" cy = "671.766" r = "3" />
<circle cx = "632.639" cy = "243.590" r = "3" />
<circle cx = "991.037" cy = "634.661" r = "3" />
<circle cx = "247.039" cy = "17.450" r = "3" />
<circle cx = "722.660" cy = "246.644" r = "3" />
<circle cx = "651.519" cy = "927.314" r = "3" />
<circle cx = "631.635" cy = "115.293" r = "3" />
<circle cx = "272.710" cy = "563.589" r = "3" />
<circle cx = "766.495" cy = "522.268" r = "3" />
<circle cx = "237.774" cy = "725.093" r = "3" />
<circle cx = "359.265" cy = "833.493" r = "3" />
<circle cx = "486.517" cy = "102.344" r = "3" />
<circle cx = "909.208" cy = "939.436" r = "3" />
<circle cx = "904.653" cy = "495.477" r = "3" />
<circle cx = "516.292" cy = "680.967" r = "3" />
<circle cx = "986.642" cy = "506.023" r = "3" />
<circle cx = "266.145" cy = "909.267" r = "3" />
<circle cx = "947.764" cy = "926.251" r = "3" />
<circle cx = "500.707" cy = "615.858" r = "3" />
<circle cx = "277.082" cy = "86.183" r = "3" />
<circle cx = "529.747" cy = "535.554" r = "3" />
<circle cx = "940.980" cy = "949.916" r = "3" />
<circle cx = "761.514" cy = "229.795" r = "3" />
<circle cx = "827.817" cy = "874.635" r = "3" />
<circle cx = "15.868" cy = "311.545" r = "3" />
<circle cx = "868.247" cy = "370.457" r = "3" />
<circle cx = "736.225" cy = "274.588" r = "3" />
<circle cx = "999.458" cy = "111.428" r = "3" />
<circle cx = "233.195" cy = "693.678" r = "3" />
<circle cx = "351.015" cy = "486.726" r = "3" />
<circle cx = "591.114" cy = "154.018" r = "3" />
<circle cx = "412.081" cy = "158.489" r = "3" />
<circle cx = "269.317" cy = "584.605" r = "3" />
<circle cx = "537.304" cy = "532.083" r = "3" />
<circle cx = "287.212" cy = "821.672" r = "3" />
<circle cx = "153.720" cy = "428.345" r = "3" />
<circle cx = "802.406" cy = "966.946" r = "3" />
<circle cx = "534.450" cy = "501.520" r = "3" />
<circle cx = "955.361" cy = "251.707" r = "3" />
<circle cx = "554.584" cy = "109.263" r = "3" />
<circle cx = "624.849" cy = "157.960" r = "3" />
<circle cx = "159.768" cy = "787.248" r = "3" />
<circle cx = "714.710" cy = "869.573" r = "3" />
<circle cx = "90.990" cy = "725.412" r = "3" />
<circle cx = "3.000" cy = "585.707" r = "3" />
<circle cx = "26.876" cy = "290.180" r = "3" />
<circle cx = "937.897" cy = "760.089" r = "3" />
<circle cx = "180.896" cy = "682.460" r = "3" />
<circle cx = "886.991" cy = "347.941" r = "3" />
<circle cx = "150.335" cy = "318.654" r = "3" />
<circle cx = "385.815" cy = "612.275" r = "3" />
<circle cx = "499.741" cy = "852.467" r = "3" />
<circle cx = "587.187" cy = "154.424" r = "3" />
<circle cx = "590.109" cy = "44.591" r = "3" />
<circle cx = "556.146" cy = "851.848" r = "3" />
<circle cx = "983.305" cy = "591.233" r = "3" />
<circle cx = "141.820" cy = "435.101" r = "3" />
<circle cx = "252.126" cy = "511.485" r = "3" />
<circle cx = "464.031" cy = "38.905" r = "3" />
<circle cx = "126.031" cy = "800.243" r = "3" />
<circle cx = "319.250" cy = "370.731" r = "3" />
<circle cx = "126.712" cy = "348.746" r = "3" />
<circle cx = "621.634" cy = "196.927" r = "3" />
<circle cx = "247.842" cy = "523.568" r = "3" />
<circle cx = "389.314" cy = "796.750" r = "3" />
<circle cx = "28.375" cy = "98.327" r = "3" />
<circle cx = "426.497" cy = "857.979" r = "3" />
<circle cx = "947.487" cy = "589.687" r = "3" />
<circle cx = "131.189" cy = "114.352" r = "3" />
<circle cx = "92.174" cy = "837.801" r = "3" />
<circle cx = "71.064" cy = "634.661" r = "3" />
<circle cx = "253.057" cy = "864.891" r = "3" />
<circle cx = "783.153" cy = "544.693" r = "3" />
<circle cx = "349.524" cy = "547.700" r = "3" />
<circle cx = "808.945" cy = "68.326" r = "3" />
<circle cx = "651.646" cy = "784.752" r = "3" />
<circle cx = "679.592" cy = "91.078" r = "3" />
<circle cx = "250.126" cy = "139.140" r = "3" />
<circle cx = "471.262" cy = "494.044" r = "3" />
<circle cx = "600.394" cy = "182.439" r = "3" />
<circle cx = "755.844" cy = "537.755" r = "3" />
<circle cx = "951.367" cy = "367.261" r = "3" />
<circle cx = "439.330" cy = "175.303" r = "3" />
</g>
</svg>
